<svg width="55" height="55" viewBox="0 0 55 55" fill="none" xmlns="http://www.w3.org/2000/svg">
<path d="M48.125 10.3125H6.875C6.41916 10.3125 5.98199 10.4936 5.65966 10.8159C5.33733 11.1382 5.15625 11.5754 5.15625 12.0312V41.25C5.15625 42.1617 5.51841 43.036 6.16307 43.6807C6.80773 44.3253 7.68207 44.6875 8.59375 44.6875H46.4062C47.3179 44.6875 48.1923 44.3253 48.8369 43.6807C49.4816 43.036 49.8438 42.1617 49.8438 41.25V12.0312C49.8438 11.5754 49.6627 11.1382 49.3403 10.8159C49.018 10.4936 48.5808 10.3125 48.125 10.3125ZM27.5 28.6064L11.2943 13.75H43.7057L27.5 28.6064ZM21.2072 27.5L8.59375 39.0607V15.9393L21.2072 27.5ZM23.751 29.8311L26.3291 32.2051C26.6462 32.4962 27.061 32.6577 27.4914 32.6577C27.9218 32.6577 28.3366 32.4962 28.6537 32.2051L31.2318 29.8311L43.6928 41.25H11.2943L23.751 29.8311ZM33.7928 27.5L46.4062 15.9371V39.0629L33.7928 27.5Z" fill="black"/>
</svg>
