<svg width="17" height="17" viewBox="0 0 17 17" fill="none" xmlns="http://www.w3.org/2000/svg">
<path d="M15.3017 8.69119C15.3017 8.10554 15.2532 7.67818 15.1482 7.23499H8.32422V9.87831H12.3298C12.249 10.5352 11.8129 11.5245 10.8438 12.1893L10.8302 12.2777L12.9879 13.9158L13.1374 13.9304C14.5102 12.6879 15.3017 10.8597 15.3017 8.69119" fill="#4285F4"/>
<path d="M8.32346 15.6559C10.2858 15.6559 11.9333 15.0227 13.1366 13.9306L10.8431 12.1894C10.2293 12.6089 9.40558 12.9017 8.32346 12.9017C6.40145 12.9017 4.77017 11.6592 4.18866 9.94177L4.10343 9.94887L1.85991 11.6504L1.83057 11.7304C3.02576 14.0572 5.48078 15.6559 8.32346 15.6559Z" fill="#34A853"/>
<path d="M4.18902 9.94179C4.03558 9.4986 3.94678 9.02371 3.94678 8.53305C3.94678 8.04234 4.03558 7.5675 4.18095 7.12431L4.17688 7.02992L1.90524 5.30103L1.83092 5.33567C1.33832 6.30122 1.05566 7.38549 1.05566 8.53305C1.05566 9.68061 1.33832 10.7648 1.83092 11.7304L4.18902 9.94179" fill="#FBBC05"/>
<path d="M8.3235 4.16441C9.68828 4.16441 10.6089 4.74215 11.1338 5.22495L13.1851 3.26221C11.9253 2.11465 10.2859 1.41028 8.3235 1.41028C5.4808 1.41028 3.02577 3.00894 1.83057 5.33571L4.1806 7.12435C4.77019 5.40696 6.40148 4.16441 8.3235 4.16441" fill="#EB4335"/>
</svg>
