<svg width="55" height="55" viewBox="0 0 55 55" fill="none" xmlns="http://www.w3.org/2000/svg">
<path d="M26.5 17.1875C24.4604 17.1875 22.4666 17.7923 20.7707 18.9255C19.0748 20.0586 17.753 21.6692 16.9725 23.5536C16.192 25.4379 15.9877 27.5114 16.3857 29.5119C16.7836 31.5123 17.7657 33.3498 19.208 34.792C20.6502 36.2343 22.4877 37.2164 24.4881 37.6143C26.4886 38.0123 28.5621 37.808 30.4464 37.0275C32.3308 36.247 33.9414 34.9252 35.0745 33.2293C36.2077 31.5334 36.8125 29.5396 36.8125 27.5C36.8097 24.7658 35.7223 22.1445 33.7889 20.2111C31.8555 18.2777 29.2342 17.1903 26.5 17.1875ZM26.5 34.375C25.1403 34.375 23.811 33.9718 22.6805 33.2164C21.5499 32.4609 20.6687 31.3872 20.1483 30.1309C19.628 28.8747 19.4918 27.4924 19.7571 26.1588C20.0224 24.8251 20.6772 23.6001 21.6386 22.6386C22.6001 21.6772 23.8251 21.0224 25.1588 20.7571C26.4924 20.4918 27.8747 20.628 29.1309 21.1483C30.3872 21.6687 31.4609 22.5499 32.2164 23.6805C32.9718 24.811 33.375 26.1403 33.375 27.5C33.375 29.3234 32.6507 31.072 31.3614 32.3614C30.072 33.6507 28.3234 34.375 26.5 34.375ZM36.8125 5.15625H16.1875C12.9977 5.15966 9.93945 6.42833 7.68389 8.68389C5.42833 10.9394 4.15966 13.9977 4.15625 17.1875V37.8125C4.15966 41.0023 5.42833 44.0606 7.68389 46.3161C9.93945 48.5717 12.9977 49.8403 16.1875 49.8438H36.8125C40.0023 49.8403 43.0606 48.5717 45.3161 46.3161C47.5717 44.0606 48.8403 41.0023 48.8438 37.8125V17.1875C48.8403 13.9977 47.5717 10.9394 45.3161 8.68389C43.0606 6.42833 40.0023 5.15966 36.8125 5.15625ZM45.4062 37.8125C45.4062 40.0917 44.5008 42.2776 42.8892 43.8892C41.2776 45.5008 39.0917 46.4062 36.8125 46.4062H16.1875C13.9083 46.4062 11.7224 45.5008 10.1108 43.8892C8.49916 42.2776 7.59375 40.0917 7.59375 37.8125V17.1875C7.59375 14.9083 8.49916 12.7224 10.1108 11.1108C11.7224 9.49916 13.9083 8.59375 16.1875 8.59375H36.8125C39.0917 8.59375 41.2776 9.49916 42.8892 11.1108C44.5008 12.7224 45.4062 14.9083 45.4062 17.1875V37.8125ZM40.25 16.3281C40.25 16.838 40.0988 17.3365 39.8155 17.7605C39.5322 18.1844 39.1296 18.5149 38.6585 18.71C38.1874 18.9051 37.669 18.9562 37.1689 18.8567C36.6688 18.7572 36.2094 18.5117 35.8489 18.1511C35.4883 17.7906 35.2428 17.3312 35.1433 16.8311C35.0438 16.331 35.0949 15.8126 35.29 15.3415C35.4851 14.8704 35.8156 14.4678 36.2395 14.1845C36.6635 13.9012 37.162 13.75 37.6719 13.75C38.3556 13.75 39.0114 14.0216 39.4949 14.5051C39.9784 14.9886 40.25 15.6444 40.25 16.3281Z" fill="black"/>
</svg>
