<svg width="55" height="55" viewBox="0 0 55 55" fill="none" xmlns="http://www.w3.org/2000/svg">
<path d="M23.5 13.75C21.8003 13.75 20.1388 14.254 18.7256 15.1983C17.3123 16.1426 16.2109 17.4848 15.5604 19.0551C14.91 20.6254 14.7398 22.3533 15.0714 24.0203C15.403 25.6873 16.2214 27.2186 17.4233 28.4204C18.6252 29.6223 20.1564 30.4408 21.8234 30.7724C23.4905 31.104 25.2184 30.9338 26.7887 30.2833C28.359 29.6329 29.7011 28.5314 30.6454 27.1182C31.5897 25.7049 32.0937 24.0434 32.0938 22.3438C32.0938 20.0645 31.1883 17.8787 29.5767 16.2671C27.9651 14.6554 25.7792 13.75 23.5 13.75ZM23.5 27.5C22.4802 27.5 21.4833 27.1976 20.6353 26.631C19.7874 26.0644 19.1265 25.2591 18.7362 24.317C18.346 23.3748 18.2439 22.338 18.4428 21.3378C18.6418 20.3376 19.1329 19.4188 19.854 18.6977C20.5751 17.9766 21.4939 17.4855 22.4941 17.2866C23.4943 17.0876 24.531 17.1897 25.4732 17.58C26.4154 17.9703 27.2207 18.6312 27.7873 19.4791C28.3538 20.327 28.6562 21.3239 28.6562 22.3438C28.6562 23.7113 28.113 25.0228 27.146 25.9898C26.179 26.9568 24.8675 27.5 23.5 27.5ZM23.5 3.4375C18.4875 3.44319 13.6819 5.43692 10.1375 8.98129C6.59316 12.5257 4.59944 17.3312 4.59375 22.3438C4.59375 29.0898 7.71113 36.2398 13.6172 43.0225C16.271 46.0873 19.2578 48.8472 22.5225 51.251C22.8115 51.4534 23.1557 51.562 23.5086 51.562C23.8614 51.562 24.2057 51.4534 24.4947 51.251C27.7534 48.8462 30.7344 46.0864 33.3828 43.0225C39.2803 36.2398 42.4062 29.0898 42.4062 22.3438C42.4006 17.3312 40.4068 12.5257 36.8625 8.98129C33.3181 5.43692 28.5125 3.44319 23.5 3.4375ZM23.5 47.6953C19.9486 44.9023 8.03125 34.6436 8.03125 22.3438C8.03125 18.2412 9.66099 14.3066 12.5619 11.4057C15.4629 8.50474 19.3974 6.875 23.5 6.875C27.6026 6.875 31.5371 8.50474 34.4381 11.4057C37.339 14.3066 38.9688 18.2412 38.9688 22.3438C38.9688 34.6393 27.0514 44.9023 23.5 47.6953Z" fill="black"/>
</svg>
