<svg width="55" height="55" viewBox="0 0 55 55" fill="none" xmlns="http://www.w3.org/2000/svg">
<path d="M44.8998 34.8875L34.7785 30.3521L34.7506 30.3392C34.2252 30.1145 33.652 30.0243 33.0829 30.0768C32.5139 30.1293 31.9669 30.3229 31.4914 30.64C31.4354 30.677 31.3816 30.7171 31.3303 30.7603L26.101 35.2183C22.7881 33.6091 19.3678 30.2146 17.7586 26.9447L22.2231 21.6359C22.266 21.5822 22.3069 21.5285 22.3455 21.4705C22.6558 20.9963 22.8441 20.4528 22.8936 19.8883C22.943 19.3238 22.8522 18.7558 22.6291 18.2349V18.2091L18.0809 8.07066C17.786 7.39017 17.2789 6.82331 16.6354 6.45469C15.9918 6.08607 15.2463 5.93546 14.5102 6.02535C11.599 6.40843 8.92677 7.83813 6.99265 10.0474C5.05853 12.2567 3.99476 15.0945 4.00002 18.0308C4.00002 35.0894 17.8789 48.9683 34.9375 48.9683C37.8738 48.9736 40.7116 47.9098 42.9209 45.9757C45.1302 44.0416 46.5599 41.3694 46.943 38.4582C47.033 37.7222 46.8828 36.9769 46.5145 36.3334C46.1463 35.6899 45.5799 35.1827 44.8998 34.8875ZM34.9375 45.5308C27.6465 45.5229 20.6564 42.623 15.5009 37.4675C10.3454 32.3119 7.44548 25.3218 7.43752 18.0308C7.42944 15.9328 8.18529 13.9037 9.56391 12.3222C10.9425 10.7408 12.8497 9.71522 14.9291 9.43707C14.9283 9.44564 14.9283 9.45427 14.9291 9.46285L19.4408 19.5605L15 24.8757C14.9549 24.9276 14.914 24.9829 14.8776 25.0412C14.5543 25.5373 14.3646 26.1085 14.3269 26.6995C14.2893 27.2904 14.405 27.8811 14.6627 28.4142C16.6092 32.3953 20.6203 36.3763 24.6444 38.3207C25.1814 38.576 25.7755 38.6877 26.3686 38.6447C26.9617 38.6018 27.5335 38.4058 28.0281 38.0757C28.0833 38.0386 28.1364 37.9984 28.1871 37.9554L33.41 33.4996L43.5076 38.022C43.5076 38.022 43.5248 38.022 43.5313 38.022C43.2565 40.1044 42.2325 42.0154 40.6508 43.3974C39.069 44.7795 37.038 45.5379 34.9375 45.5308Z" fill="black"/>
</svg>
