<svg width="36" height="37" viewBox="0 0 36 37" fill="none" xmlns="http://www.w3.org/2000/svg">
<path d="M31.5 6.9375H4.5C4.20163 6.9375 3.91548 7.05932 3.7045 7.27616C3.49353 7.493 3.375 7.78709 3.375 8.09375V27.75C3.375 28.3633 3.61205 28.9515 4.03401 29.3852C4.45597 29.8189 5.02826 30.0625 5.625 30.0625H30.375C30.9717 30.0625 31.544 29.8189 31.966 29.3852C32.3879 28.9515 32.625 28.3633 32.625 27.75V8.09375C32.625 7.78709 32.5065 7.493 32.2955 7.27616C32.0845 7.05932 31.7984 6.9375 31.5 6.9375ZM18 19.2443L7.39266 9.25H28.6073L18 19.2443ZM13.8811 18.5L5.625 26.2772V10.7228L13.8811 18.5ZM15.5461 20.0682L17.2336 21.6652C17.4411 21.8611 17.7126 21.9697 17.9944 21.9697C18.2761 21.9697 18.5476 21.8611 18.7552 21.6652L20.4427 20.0682L28.5989 27.75H7.39266L15.5461 20.0682ZM22.1189 18.5L30.375 10.7213V26.2787L22.1189 18.5Z" fill="#E6E6E6"/>
</svg>
