<svg width="37" height="41" viewBox="0 0 37 41" fill="none" xmlns="http://www.w3.org/2000/svg">
<path d="M18.3194 3.83838C15.3755 3.83838 12.4976 4.81525 10.0498 6.64546C7.60204 8.47568 5.69422 11.077 4.56762 14.1206C3.44102 17.1641 3.14625 20.5131 3.72059 23.7441C4.29492 26.9751 5.71256 29.943 7.79425 32.2724C9.87593 34.6018 12.5282 36.1882 15.4155 36.8308C18.3029 37.4735 21.2957 37.1437 24.0156 35.883C26.7354 34.6223 29.0601 32.4875 30.6957 29.7483C32.3313 27.0092 33.2043 23.7889 33.2043 20.4946C33.2001 16.0785 31.6305 11.8447 28.84 8.72203C26.0494 5.59939 22.2658 3.84304 18.3194 3.83838ZM19.4644 34.5291V24.3384H22.8994C23.203 24.3384 23.4943 24.2034 23.709 23.9631C23.9237 23.7228 24.0444 23.3969 24.0444 23.0571C24.0444 22.7173 23.9237 22.3914 23.709 22.1511C23.4943 21.9109 23.203 21.7759 22.8994 21.7759H19.4644V17.9321C19.4644 17.2525 19.7057 16.6007 20.1351 16.1202C20.5646 15.6396 21.147 15.3696 21.7544 15.3696H24.0444C24.348 15.3696 24.6393 15.2346 24.854 14.9944C25.0687 14.7541 25.1893 14.4282 25.1893 14.0884C25.1893 13.7486 25.0687 13.4227 24.854 13.1824C24.6393 12.9421 24.348 12.8071 24.0444 12.8071H21.7544C20.5397 12.8071 19.3748 13.3471 18.5159 14.3082C17.657 15.2693 17.1744 16.5729 17.1744 17.9321V21.7759H13.7395C13.4358 21.7759 13.1446 21.9109 12.9298 22.1511C12.7151 22.3914 12.5945 22.7173 12.5945 23.0571C12.5945 23.3969 12.7151 23.7228 12.9298 23.9631C13.1446 24.2034 13.4358 24.3384 13.7395 24.3384H17.1744V34.5291C13.9467 34.1994 10.9568 32.49 8.82666 29.7564C6.69652 27.0228 5.59012 23.4756 5.7376 19.8524C5.88507 16.2293 7.27508 12.8093 9.61848 10.3037C11.9619 7.79818 15.0783 6.39998 18.3194 6.39998C21.5606 6.39998 24.677 7.79818 27.0204 10.3037C29.3638 12.8093 30.7538 16.2293 30.9012 19.8524C31.0487 23.4756 29.9423 27.0228 27.8122 29.7564C25.682 32.49 22.6921 34.1994 19.4644 34.5291Z" fill="white"/>
</svg>
