<svg width="34" height="38" viewBox="0 0 34 38" fill="none" xmlns="http://www.w3.org/2000/svg">
<path d="M16.9794 11.8696C15.72 11.8696 14.489 12.2875 13.4419 13.0704C12.3948 13.8533 11.5787 14.9661 11.0968 16.268C10.6149 17.5699 10.4888 19.0025 10.7345 20.3846C10.9801 21.7668 11.5866 23.0363 12.477 24.0328C13.3675 25.0292 14.502 25.7078 15.7372 25.9827C16.9723 26.2576 18.2525 26.1165 19.416 25.5773C20.5795 25.038 21.5739 24.1248 22.2735 22.9531C22.9732 21.7814 23.3466 20.4038 23.3466 18.9946C23.3449 17.1056 22.6735 15.2944 21.4797 13.9587C20.286 12.6229 18.6675 11.8716 16.9794 11.8696ZM16.9794 23.7446C16.1398 23.7446 15.3191 23.466 14.6211 22.9441C13.923 22.4222 13.3789 21.6803 13.0576 20.8124C12.7364 19.9444 12.6523 18.9894 12.8161 18.068C12.9799 17.1465 13.3842 16.3002 13.9778 15.6359C14.5715 14.9716 15.3278 14.5192 16.1512 14.3359C16.9747 14.1526 17.8281 14.2467 18.6038 14.6062C19.3794 14.9657 20.0424 15.5745 20.5088 16.3557C20.9752 17.1368 21.2242 18.0552 21.2242 18.9946C21.2242 20.2544 20.777 21.4626 19.9809 22.3534C19.1849 23.2442 18.1052 23.7446 16.9794 23.7446ZM23.3466 3.55713H10.6121C8.64261 3.55949 6.75438 4.43602 5.36173 5.99441C3.96908 7.55279 3.18576 9.66574 3.18365 11.8696V26.1196C3.18576 28.3235 3.96908 30.4365 5.36173 31.9949C6.75438 33.5532 8.64261 34.4298 10.6121 34.4321H23.3466C25.3161 34.4298 27.2043 33.5532 28.597 31.9949C29.9896 30.4365 30.773 28.3235 30.7751 26.1196V11.8696C30.773 9.66574 29.9896 7.55279 28.597 5.99441C27.2043 4.43602 25.3161 3.55949 23.3466 3.55713ZM28.6527 26.1196C28.6527 27.6944 28.0936 29.2046 27.0985 30.3181C26.1035 31.4316 24.7539 32.0571 23.3466 32.0571H10.6121C9.20486 32.0571 7.85525 31.4316 6.86017 30.3181C5.8651 29.2046 5.30607 27.6944 5.30607 26.1196V11.8696C5.30607 10.2949 5.8651 8.78468 6.86017 7.67118C7.85525 6.55769 9.20486 5.93213 10.6121 5.93213H23.3466C24.7539 5.93213 26.1035 6.55769 27.0985 7.67118C28.0936 8.78468 28.6527 10.2949 28.6527 11.8696V26.1196ZM25.469 11.2759C25.469 11.6282 25.3757 11.9726 25.2008 12.2655C25.0258 12.5584 24.7772 12.7867 24.4864 12.9215C24.1955 13.0564 23.8755 13.0916 23.5667 13.0229C23.2579 12.9542 22.9743 12.7845 22.7516 12.5354C22.529 12.2863 22.3774 11.9689 22.316 11.6234C22.2546 11.2779 22.2861 10.9197 22.4066 10.5942C22.5271 10.2687 22.7311 9.99055 22.9929 9.79482C23.2546 9.5991 23.5624 9.49463 23.8772 9.49463C24.2994 9.49463 24.7043 9.6823 25.0028 10.0163C25.3013 10.3504 25.469 10.8035 25.469 11.2759Z" fill="white"/>
</svg>
