<svg width="39" height="39" viewBox="0 0 39 39" fill="none" xmlns="http://www.w3.org/2000/svg">
<path d="M19.5 9.75C18.2948 9.75 17.1166 10.1074 16.1145 10.777C15.1124 11.4466 14.3313 12.3983 13.8701 13.5118C13.4089 14.6253 13.2882 15.8505 13.5233 17.0326C13.7585 18.2147 14.3388 19.3005 15.1911 20.1527C16.0433 21.0049 17.1291 21.5853 18.3112 21.8204C19.4932 22.0555 20.7185 21.9349 21.832 21.4736C22.9455 21.0124 23.8972 20.2314 24.5668 19.2293C25.2364 18.2271 25.5938 17.049 25.5938 15.8438C25.5938 14.2276 24.9517 12.6776 23.8089 11.5348C22.6661 10.392 21.1162 9.75 19.5 9.75ZM19.5 19.5C18.7769 19.5 18.07 19.2856 17.4687 18.8838C16.8674 18.4821 16.3988 17.911 16.1221 17.2429C15.8453 16.5748 15.7729 15.8397 15.914 15.1305C16.0551 14.4212 16.4033 13.7697 16.9146 13.2584C17.426 12.7471 18.0775 12.3988 18.7867 12.2578C19.4959 12.1167 20.2311 12.1891 20.8992 12.4658C21.5673 12.7425 22.1383 13.2112 22.5401 13.8124C22.9418 14.4137 23.1562 15.1206 23.1562 15.8438C23.1562 16.8134 22.771 17.7434 22.0854 18.4291C21.3997 19.1148 20.4697 19.5 19.5 19.5ZM19.5 2.4375C15.9457 2.44153 12.5381 3.85527 10.0248 6.36855C7.51152 8.88184 6.09778 12.2894 6.09375 15.8438C6.09375 20.6273 8.30426 25.6973 12.4922 30.5068C14.374 32.6801 16.4919 34.6371 18.8068 36.3416C19.0118 36.4852 19.2559 36.5622 19.5061 36.5622C19.7563 36.5622 20.0004 36.4852 20.2054 36.3416C22.516 34.6364 24.6298 32.6794 26.5078 30.5068C30.6896 25.6973 32.9062 20.6273 32.9062 15.8438C32.9022 12.2894 31.4885 8.88184 28.9752 6.36855C26.4619 3.85527 23.0543 2.44153 19.5 2.4375ZM19.5 33.8203C16.9818 31.8398 8.53125 24.5654 8.53125 15.8438C8.53125 12.9347 9.68688 10.1447 11.7439 8.08767C13.801 6.03063 16.5909 4.875 19.5 4.875C22.4091 4.875 25.199 6.03063 27.2561 8.08767C29.3131 10.1447 30.4688 12.9347 30.4688 15.8438C30.4688 24.5624 22.0182 31.8398 19.5 33.8203Z" fill="#E6E6E6"/>
</svg>
