<svg width="47" height="46" viewBox="0 0 47 46" fill="none" xmlns="http://www.w3.org/2000/svg">
<path d="M37.5076 27.8412L30.2055 24.5691L30.1853 24.5598C29.8062 24.3977 29.3927 24.3326 28.9822 24.3705C28.5716 24.4084 28.177 24.548 27.834 24.7768C27.7936 24.8035 27.7548 24.8325 27.7177 24.8636L23.945 28.0799C21.5549 26.9189 19.0872 24.4699 17.9263 22.1108L21.1472 18.2807C21.1782 18.2419 21.2077 18.2032 21.2356 18.1613C21.4594 17.8193 21.5952 17.4271 21.6309 17.0199C21.6666 16.6126 21.6011 16.2028 21.4402 15.827V15.8084L18.1588 8.4939C17.946 8.00296 17.5802 7.59399 17.1159 7.32804C16.6516 7.06209 16.1138 6.95344 15.5827 7.01829C13.4824 7.29466 11.5545 8.32614 10.1591 9.92006C8.76368 11.514 7.99622 13.5614 8.00001 15.6798C8.00001 27.9869 18.0131 38 30.3202 38C32.4386 38.0038 34.4859 37.2363 36.0799 35.8409C37.6738 34.4455 38.7053 32.5176 38.9816 30.4173C39.0466 29.8864 38.9382 29.3487 38.6725 28.8844C38.4069 28.4201 37.9982 28.0542 37.5076 27.8412ZM30.3202 35.52C25.06 35.5142 20.0169 33.4221 16.2974 29.7026C12.5779 25.983 10.4858 20.94 10.48 15.6798C10.4742 14.1662 11.0195 12.7022 12.0141 11.5612C13.0088 10.4203 14.3847 9.68039 15.8849 9.47971C15.8843 9.4859 15.8843 9.49213 15.8849 9.49831L19.1399 16.7834L15.9361 20.6181C15.9036 20.6555 15.874 20.6954 15.8477 20.7375C15.6145 21.0954 15.4776 21.5075 15.4505 21.9339C15.4233 22.3602 15.5068 22.7864 15.6927 23.171C17.097 26.0432 19.9909 28.9153 22.8941 30.3181C23.2815 30.5023 23.7101 30.5829 24.138 30.5519C24.5659 30.5209 24.9785 30.3795 25.3353 30.1414C25.3751 30.1146 25.4134 30.0856 25.45 30.0546L29.2181 26.8399L36.5032 30.1027C36.5032 30.1027 36.5156 30.1027 36.5202 30.1027C36.322 31.605 35.5832 32.9837 34.442 33.9808C33.3009 34.9779 31.8356 35.5251 30.3202 35.52Z" fill="white"/>
</svg>
