<svg width="34" height="38" viewBox="0 0 34 38" fill="none" xmlns="http://www.w3.org/2000/svg">
<path d="M29.3943 10.5672C27.7243 10.5653 26.1232 9.82207 24.9424 8.50066C23.7615 7.17926 23.0973 5.3876 23.0956 3.51885C23.0956 3.20729 22.985 2.90849 22.7881 2.68819C22.5912 2.46788 22.3242 2.34412 22.0458 2.34412H16.7968C16.5184 2.34412 16.2513 2.46788 16.0545 2.68819C15.8576 2.90849 15.747 3.20729 15.747 3.51885V22.9019C15.7468 23.4274 15.6205 23.9433 15.3815 24.3956C15.1424 24.8479 14.7992 25.2202 14.3878 25.4736C13.9763 25.7269 13.5117 25.8521 13.0423 25.836C12.5728 25.82 12.1159 25.6632 11.719 25.3822C11.3222 25.1012 11 24.7062 10.7861 24.2383C10.5722 23.7705 10.4743 23.247 10.5028 22.7224C10.5313 22.1979 10.6851 21.6915 10.948 21.2561C11.211 20.8207 11.5736 20.4722 11.9979 20.247C12.1774 20.1517 12.329 20.0013 12.4352 19.8134C12.5413 19.6255 12.5977 19.4077 12.5976 19.1854V12.9167C12.5977 12.745 12.5641 12.5753 12.4992 12.4197C12.4344 12.2641 12.3398 12.1263 12.2222 12.0159C12.1046 11.9056 11.9668 11.8255 11.8186 11.7812C11.6703 11.7369 11.5152 11.7295 11.3641 11.7596C6.68067 12.6935 3.14941 17.4835 3.14941 22.9019C3.14941 25.8617 4.20015 28.7003 6.07046 30.7932C7.94077 32.8861 10.4775 34.0619 13.1225 34.0619C15.7675 34.0619 18.3042 32.8861 20.1745 30.7932C22.0448 28.7003 23.0956 25.8617 23.0956 22.9019V17.0708C25.0399 18.206 27.2013 18.7961 29.3943 18.7904C29.6728 18.7904 29.9398 18.6666 30.1367 18.4463C30.3335 18.226 30.4441 17.9272 30.4441 17.6156V11.742C30.4441 11.4304 30.3335 11.1316 30.1367 10.9113C29.9398 10.691 29.6728 10.5672 29.3943 10.5672ZM28.3445 16.388C26.293 16.1846 24.3286 15.3653 22.6586 14.0165C22.5016 13.8903 22.3165 13.8149 22.1237 13.7989C21.931 13.7828 21.7379 13.8266 21.566 13.9255C21.394 14.0243 21.2498 14.1744 21.1492 14.3592C21.0487 14.5439 20.9956 14.7561 20.996 14.9725V22.9019C20.996 25.2386 20.1664 27.4796 18.6899 29.1319C17.2133 30.7842 15.2107 31.7124 13.1225 31.7124C11.0343 31.7124 9.03166 30.7842 7.5551 29.1319C6.07853 27.4796 5.24901 25.2386 5.24901 22.9019C5.24901 19.0987 7.43259 15.6876 10.498 14.4438V18.507C9.81937 19.0143 9.26979 19.7098 8.90283 20.5256C8.53587 21.3414 8.36404 22.2496 8.40409 23.1618C8.44415 24.074 8.69472 24.9591 9.13138 25.7306C9.56805 26.5022 10.1759 27.1341 10.8957 27.5646C11.6155 27.9951 12.4227 28.2095 13.2387 28.1871C14.0546 28.1646 14.8514 27.906 15.5514 27.4364C16.2514 26.9668 16.8308 26.3023 17.233 25.5076C17.6353 24.713 17.8467 23.8152 17.8466 22.9019V4.69358H21.0616C21.2977 6.76269 22.1409 8.68557 23.459 10.1605C24.7771 11.6355 26.4955 12.5791 28.3445 12.8433V16.388Z" fill="white"/>
</svg>
