<svg width="34" height="39" viewBox="0 0 34 39" fill="none" xmlns="http://www.w3.org/2000/svg">
<path d="M21.8397 18.0279L15.4647 13.2722C15.3046 13.1527 15.1186 13.084 14.9264 13.0736C14.7342 13.0632 14.5431 13.1114 14.3735 13.213C14.2039 13.3146 14.0621 13.4659 13.9633 13.6506C13.8645 13.8354 13.8124 14.0467 13.8125 14.262V23.7735C13.8124 23.9888 13.8645 24.2001 13.9633 24.3849C14.0621 24.5696 14.2039 24.7209 14.3735 24.8225C14.5431 24.9241 14.7342 24.9723 14.9264 24.9618C15.1186 24.9514 15.3046 24.8828 15.4647 24.7633L21.8397 20.0075C21.9854 19.899 22.1049 19.7519 22.1876 19.5792C22.2703 19.4065 22.3135 19.2136 22.3135 19.0177C22.3135 18.8218 22.2703 18.629 22.1876 18.4563C22.1049 18.2836 21.9854 18.1365 21.8397 18.0279ZM15.9375 21.5517V16.4912L19.3348 19.0177L15.9375 21.5517ZM31.122 10.3265C30.9968 9.77866 30.757 9.27192 30.4224 8.84814C30.0878 8.42436 29.668 8.09567 29.1975 7.88921C24.6447 5.9215 17.3984 5.93934 17 5.93934C16.6016 5.93934 9.35531 5.9215 4.8025 7.88921C4.33203 8.09567 3.91217 8.42436 3.57756 8.84814C3.24296 9.27192 3.00319 9.77866 2.87805 10.3265C2.53406 11.8098 2.125 14.5206 2.125 19.0177C2.125 23.5149 2.53406 26.2257 2.87805 27.7089C3.003 28.2571 3.24268 28.7641 3.5773 29.1882C3.91192 29.6122 4.33188 29.9411 4.8025 30.1478C9.16406 32.0307 15.9906 32.0961 16.9123 32.0961H17.0877C18.0094 32.0961 24.8399 32.0307 29.1975 30.1478C29.6681 29.9411 30.0881 29.6122 30.4227 29.1882C30.7573 28.7641 30.997 28.2571 31.122 27.7089C31.4659 26.2227 31.875 23.5149 31.875 19.0177C31.875 14.5206 31.4659 11.8098 31.122 10.3265ZM29.0647 27.1204C29.0242 27.3027 28.9457 27.4717 28.8356 27.6136C28.7255 27.7554 28.5869 27.866 28.4312 27.9363C24.2277 29.7524 17.0784 29.7197 17.0093 29.7197H17C16.9283 29.7197 9.7843 29.7495 5.57812 27.9363C5.42243 27.866 5.28384 27.7554 5.17372 27.6136C5.0636 27.4717 4.98509 27.3027 4.94461 27.1204C4.62187 25.7635 4.25 23.2638 4.25 19.0177C4.25 14.7717 4.62187 12.272 4.93531 10.9225C4.97504 10.7391 5.05321 10.5689 5.16337 10.426C5.27353 10.2831 5.41252 10.1715 5.56883 10.1006C9.62226 8.34844 16.4143 8.31723 16.9708 8.31723H17.0066C17.0784 8.31723 24.229 8.29048 28.4285 10.1006C28.5842 10.171 28.7228 10.2816 28.8329 10.4234C28.943 10.5652 29.0216 10.7342 29.062 10.9166C29.3781 12.272 29.75 14.7717 29.75 19.0177C29.75 23.2638 29.3781 25.7635 29.0647 27.113V27.1204Z" fill="white"/>
</svg>
